<svg width="16" height="16" viewBox="0 0 16 16" fill="none" xmlns="http://www.w3.org/2000/svg">
<path d="M5.44 7.47001H10.7V8.72001H5.44V7.47001ZM5.44 9.83001H10.7V11.08H5.44V9.83001ZM5.44 5.07001H10.7V6.32001H5.44V5.07001Z" fill="white"/>
<path d="M11.34 1L9.63999 0.28L8.07999 1L6.40999 0.28L4.83999 1L2.45999 0V16L4.83999 15L6.40999 15.69L8.07999 15L9.63999 15.69L11.34 15L13.54 16V0L11.34 1ZM12.28 14.11L11.36 13.7L9.66999 14.39L8.09999 13.67L6.41999 14.36L4.86999 13.67L3.71999 14.14V1.86L4.86999 2.33L6.41999 1.64L8.09999 2.33L9.66999 1.64L11.36 2.33L12.28 1.92V14.11Z" fill="white"/>
</svg>
