<svg width="16" height="16" viewBox="0 0 16 16" fill="none" xmlns="http://www.w3.org/2000/svg">
<path d="M10.91 2.75H13.91C13.6096 5.62107 12.2557 8.27891 10.11 10.21C7.94696 12.1538 5.13805 13.2232 2.22999 13.21H1.45999V10.4L3.99999 9.52L4.83999 10.94L5.42999 12L6.49999 11.38C8.41579 10.268 10.0484 8.72783 11.27 6.88L12 5.73L10.78 5.09L9.77999 4.57L10.87 2.75H10.91ZM10.87 1.5C10.6543 1.50161 10.4427 1.55854 10.2554 1.66535C10.068 1.77215 9.91124 1.92526 9.79999 2.11L8.74999 3.93C8.66093 4.07546 8.60283 4.23774 8.57934 4.40668C8.55584 4.57562 8.56745 4.74759 8.61344 4.91184C8.65943 5.07608 8.73881 5.22908 8.84662 5.36125C8.95443 5.49342 9.08834 5.60194 9.23999 5.68L10.24 6.2C9.12362 7.88574 7.6311 9.28925 5.87999 10.3L4.99999 8.89C4.89701 8.71251 4.75191 8.56311 4.5775 8.45498C4.4031 8.34685 4.20476 8.28332 3.99999 8.27C3.86033 8.26969 3.72165 8.29337 3.58999 8.34L0.999994 9.22C0.764147 9.31331 0.562267 9.47616 0.421163 9.68693C0.280059 9.89769 0.206409 10.1464 0.209994 10.4V13.25C0.209994 13.5815 0.34169 13.8995 0.576111 14.1339C0.810531 14.3683 1.12847 14.5 1.45999 14.5H2.20999C5.41947 14.5009 8.51582 13.3144 10.903 11.1691C13.2901 9.02385 14.7993 6.07134 15.14 2.88C15.1567 2.70557 15.1368 2.52958 15.0816 2.36327C15.0265 2.19696 14.9372 2.04398 14.8196 1.91411C14.7019 1.78424 14.5585 1.68034 14.3985 1.60903C14.2384 1.53773 14.0652 1.50059 13.89 1.5H10.87Z" fill="white"/>
</svg>
