<svg width="16" height="16" viewBox="0 0 16 16" fill="none" xmlns="http://www.w3.org/2000/svg">
<path d="M14.12 4L8.62001 0.849998C8.43025 0.744937 8.21691 0.689819 8.00001 0.689819C7.78311 0.689819 7.56977 0.744937 7.38001 0.849998L1.88001 4C1.68795 4.1097 1.52844 4.2684 1.41776 4.45989C1.30708 4.65139 1.2492 4.86882 1.25001 5.09V11C1.26438 11.2057 1.32943 11.4047 1.43935 11.5792C1.54928 11.7536 1.70066 11.8982 1.88001 12L7.38001 15.11C7.56977 15.2151 7.78311 15.2702 8.00001 15.2702C8.21691 15.2702 8.43025 15.2151 8.62001 15.11L14.12 12C14.2994 11.8982 14.4507 11.7536 14.5607 11.5792C14.6706 11.4047 14.7356 11.2057 14.75 11V5.05C14.7439 4.83564 14.6827 4.62646 14.5724 4.44257C14.4621 4.25869 14.3063 4.10628 14.12 4V4ZM7.38001 13.71L5.25001 12.51V7.21L7.38001 8.37V13.71ZM8.00001 7.29L5.92001 6.15L10.73 3.48L12.82 4.66L8.00001 7.29ZM8.00001 1.94L9.46001 2.76L4.62001 5.45L3.18001 4.66L8.00001 1.94ZM2.50001 5.71L4.00001 6.53V11.8L2.50001 11V5.71ZM8.62001 13.71V8.37L13.5 5.71V11L8.62001 13.71Z" fill="white"/>
</svg>
