<svg width="16" height="16" viewBox="0 0 16 16" fill="none" xmlns="http://www.w3.org/2000/svg">
<path d="M8 0.520001C5.94908 0.457869 3.95683 1.2095 2.45805 2.61086C0.959272 4.01222 0.0756409 5.94953 0 8C0.0756409 10.0505 0.959272 11.9878 2.45805 13.3891C3.95683 14.7905 5.94908 15.5421 8 15.48C10.0509 15.5421 12.0432 14.7905 13.5419 13.3891C15.0407 11.9878 15.9244 10.0505 16 8C15.9244 5.94953 15.0407 4.01222 13.5419 2.61086C12.0432 1.2095 10.0509 0.457869 8 0.520001V0.520001ZM8 14.23C6.27979 14.295 4.60386 13.676 3.33886 12.5085C2.07387 11.3409 1.32281 9.7199 1.25 8C1.32281 6.2801 2.07387 4.65906 3.33886 3.49152C4.60386 2.32398 6.27979 1.705 8 1.77C9.72021 1.705 11.3961 2.32398 12.6611 3.49152C13.9261 4.65906 14.6772 6.2801 14.75 8C14.6772 9.7199 13.9261 11.3409 12.6611 12.5085C11.3961 13.676 9.72021 14.295 8 14.23V14.23Z" fill="white"/>
<path d="M8.99999 7.38H6.99999C6.95434 7.37629 6.90991 7.3634 6.86937 7.3421C6.82882 7.3208 6.793 7.29153 6.76405 7.25604C6.73509 7.22055 6.71361 7.17957 6.70089 7.13558C6.68816 7.09158 6.68446 7.04546 6.68999 7C6.69333 6.99987 6.69666 6.99987 6.69999 7C6.71067 6.9252 6.74595 6.85608 6.80028 6.80357C6.8546 6.75105 6.92487 6.71813 6.99999 6.71H8.93999C9.02041 6.71149 9.0977 6.74145 9.15812 6.79454C9.21854 6.84764 9.25818 6.92044 9.26999 7H10.52C10.5071 6.58876 10.3352 6.19854 10.0406 5.91135C9.74593 5.62417 9.35143 5.46238 8.93999 5.46H8.61999V4.21H7.36999V5.46H6.99999C6.59203 5.4675 6.20257 5.63155 5.91219 5.9182C5.62182 6.20485 5.45276 6.59217 5.43999 7C5.43558 7.3641 5.55949 7.71812 5.78999 8C5.9333 8.18637 6.11615 8.33864 6.32538 8.44585C6.53461 8.55306 6.76501 8.61254 6.99999 8.62H8.99999C9.04737 8.62106 9.094 8.63202 9.1369 8.65216C9.17979 8.67231 9.218 8.7012 9.24908 8.73698C9.28015 8.77276 9.3034 8.81464 9.31733 8.85994C9.33127 8.90523 9.33558 8.95294 9.32999 9C9.32018 9.08042 9.28112 9.15441 9.22026 9.20789C9.15941 9.26137 9.08101 9.2906 8.99999 9.29H7.07999C6.99898 9.2906 6.92058 9.26137 6.85972 9.20789C6.79887 9.15441 6.75981 9.08042 6.74999 9H5.48999C5.50043 9.41207 5.67149 9.80375 5.96667 10.0915C6.26186 10.3792 6.65779 10.5401 7.06999 10.54H7.37999V11.79H8.61999V10.54H8.99999C9.40873 10.535 9.7996 10.3717 10.0905 10.0845C10.3814 9.79736 10.5497 9.40863 10.56 9C10.5707 8.6366 10.45 8.28153 10.22 8C10.0756 7.81234 9.89118 7.65929 9.68011 7.55203C9.46904 7.44476 9.23668 7.38599 8.99999 7.38V7.38Z" fill="white"/>
</svg>
