<svg width="16" height="16" viewBox="0 0 16 16" fill="none" xmlns="http://www.w3.org/2000/svg">
<path d="M15.7083 3.28125L11.6292 0.21875C11.4417 0.078125 11.1875 0 10.9208 0H10.6667V4H16V3.80938C16 3.6125 15.8958 3.42188 15.7083 3.28125ZM9.33333 4.25V0H1C0.445833 0 0 0.334375 0 0.75V15.25C0 15.6656 0.445833 16 1 16H15C15.5542 16 16 15.6656 16 15.25V5H10.3333C9.78333 5 9.33333 4.6625 9.33333 4.25ZM2.66667 2.25C2.66667 2.11187 2.81583 2 3 2H6.33333C6.5175 2 6.66667 2.11187 6.66667 2.25V2.75C6.66667 2.88813 6.5175 3 6.33333 3H3C2.81583 3 2.66667 2.88813 2.66667 2.75V2.25ZM2.66667 4.75V4.25C2.66667 4.11187 2.81583 4 3 4H6.33333C6.5175 4 6.66667 4.11187 6.66667 4.25V4.75C6.66667 4.88813 6.5175 5 6.33333 5H3C2.81583 5 2.66667 4.88813 2.66667 4.75ZM8.66667 12.9963V13.75C8.66667 13.8881 8.5175 14 8.33333 14H7.66667C7.4825 14 7.33333 13.8881 7.33333 13.75V12.9909C6.86292 12.9728 6.40542 12.8497 6.02625 12.6362C5.86375 12.5447 5.85542 12.3622 6.0025 12.2569L6.49208 11.9066C6.6075 11.8241 6.77917 11.8203 6.91417 11.8837C7.07542 11.9594 7.25833 12 7.44833 12H8.61958C8.89042 12 9.11125 11.815 9.11125 11.5878C9.11125 11.4019 8.96083 11.2381 8.74583 11.19L6.87083 10.7681C6.09625 10.5937 5.555 10.0363 5.555 9.41219C5.555 8.64594 6.34875 8.02344 7.33292 8.00375V7.25C7.33292 7.11187 7.48208 7 7.66625 7H8.33292C8.51708 7 8.66625 7.11187 8.66625 7.25V8.00906C9.13667 8.02719 9.59417 8.15 9.97333 8.36375C10.1358 8.45531 10.1442 8.63781 9.99708 8.74312L9.5075 9.09344C9.39208 9.17594 9.22042 9.17969 9.08542 9.11625C8.92417 9.04031 8.74125 9 8.55125 9H7.38C7.10917 9 6.88833 9.185 6.88833 9.41219C6.88833 9.59813 7.03875 9.76188 7.25375 9.81L9.12875 10.2319C9.90333 10.4063 10.4446 10.9637 10.4446 11.5878C10.4446 12.3544 9.65083 12.9766 8.66667 12.9963Z" fill="white"/>
</svg>
