<svg width="16" height="16" viewBox="0 0 16 16" fill="none" xmlns="http://www.w3.org/2000/svg">
<path d="M16 10V11.5C16 12.0531 15.6425 12.5 15.2 12.5H14.3675C14.1775 13.9188 13.19 15 12 15C10.81 15 9.8225 13.9188 9.6325 12.5H6.3675C6.1775 13.9188 5.19 15 4 15C2.81 15 1.8235 13.9188 1.63325 12.5H0.8C0.35825 12.5 0 12.0531 0 11.5V8C0 7.15312 0.42025 6.43125 1.014 6.1375L2.055 2.88594C2.4195 1.74687 3.3025 1 4.2825 1H8.83C9.56 1 10.2275 1.41437 10.705 2.12594L13.205 6.03125C14.78 6.25312 16 7.9625 16 9.97188V10ZM4.2825 3C3.955 3 3.6625 3.22187 3.54 3.62812L2.7825 6H5.6V3H4.2825ZM6.8 6H11.135L9.455 3.375C9.305 3.1375 9.0525 3 8.83 3H6.8V6ZM13.1325 12.5C13.175 12.3156 13.2 12.175 13.2 12C13.2 11.1719 12.6625 10.5 12 10.5C11.3375 10.5 10.8 11.1719 10.8 12C10.8 12.175 10.8025 12.3156 10.8675 12.5C11.0325 13.0813 11.4775 13.5 12 13.5C12.5225 13.5 12.9675 13.0813 13.1325 12.5ZM5.1325 12.5C5.175 12.3156 5.2 12.175 5.2 12C5.2 11.1719 4.6625 10.5 4 10.5C3.3375 10.5 2.8 11.1719 2.8 12C2.8 12.175 2.8025 12.3156 2.8675 12.5C3.0325 13.0813 3.4775 13.5 4 13.5C4.5225 13.5 4.9675 13.0813 5.1325 12.5Z" fill="white"/>
</svg>
