<svg width="16" height="16" viewBox="0 0 16 16" fill="none" xmlns="http://www.w3.org/2000/svg">
<path d="M0.799847 8.80007H1.59986V14.4C1.59986 15.2824 2.31748 16 3.1999 16H12.8001C13.6825 16 14.4001 15.2824 14.4001 14.4V8.80007H15.2002C15.3584 8.80004 15.513 8.7531 15.6445 8.6652C15.7761 8.57729 15.8786 8.45236 15.9391 8.3062C15.9996 8.16004 16.0155 7.99922 15.9846 7.84406C15.9538 7.6889 15.8776 7.54637 15.7658 7.43449L8.56561 0.234559C8.49138 0.160203 8.40322 0.101213 8.30616 0.0609648C8.20911 0.0207167 8.10507 0 8 0C7.89493 0 7.79089 0.0207167 7.69384 0.0609648C7.59679 0.101213 7.50862 0.160203 7.43439 0.234559L0.234235 7.43449C0.122385 7.54637 0.0462178 7.6889 0.0153631 7.84406C-0.0154916 7.99922 0.000351168 8.16004 0.0608885 8.3062C0.121426 8.45236 0.22394 8.57729 0.35547 8.6652C0.487001 8.7531 0.641643 8.80004 0.799847 8.80007ZM6.39997 14.4V10.4001H9.60004V14.4H6.39997ZM8 1.93134L12.8001 6.73129V10.4001L12.8009 14.4H11.2001V10.4001C11.2001 9.51767 10.4825 8.80007 9.60004 8.80007H6.39997C5.51755 8.80007 4.79993 9.51767 4.79993 10.4001V14.4H3.1999V6.73129L8 1.93134Z" fill="white"/>
</svg>
