<svg width="16" height="16" viewBox="0 0 16 16" fill="none" xmlns="http://www.w3.org/2000/svg">
<path d="M15.32 7.45H13.32V8.51H15.32V8C15.3302 7.81681 15.3302 7.63319 15.32 7.45V7.45ZM12.91 11L14.47 11.37C14.6489 11.0504 14.7994 10.7158 14.92 10.37L13.16 10L12.91 11ZM14.91 5.57C14.7894 5.22418 14.6389 4.88957 14.46 4.57L12.91 4.91L13.16 5.91L14.91 5.57ZM10.62 2.51L1.89999 6.3V5.61H0.649994V10.39H1.89999V9.68L10.62 13.47V14.47H11.87V1.5H10.62V2.51ZM1.89999 8.32V7.67L10.62 3.87V12.11L1.89999 8.32Z" fill="white"/>
</svg>
