<svg width="17" height="16" viewBox="0 0 17 16" fill="none" xmlns="http://www.w3.org/2000/svg">
<path d="M9.25 6.12V4.87H2.25L5.25 2.82L4.54 1.82L0.59 4.45C0.413659 4.56382 0.267752 4.71894 0.164938 4.90192C0.0621231 5.08489 0.00550668 5.29019 0 5.5C0.0133459 5.7012 0.073671 5.89646 0.176134 6.07013C0.278597 6.2438 0.420344 6.39102 0.59 6.5L4.52 9.22L5.23 8.22L2.23 6.16L9.25 6.12ZM15.41 9.45L11.48 6.78L10.77 7.78L13.77 9.84H6.77V11.09H13.8L10.8 13.09L11.51 14.09L15.44 11.42C15.62 11.3102 15.7687 11.1559 15.872 10.9721C15.9752 10.7882 16.0294 10.5809 16.0294 10.37C16.0294 10.1591 15.9752 9.95182 15.872 9.76795C15.7687 9.58408 15.62 9.42982 15.44 9.32L15.41 9.45Z" fill="white"/>
</svg>
